<svg width="112" height="38" viewBox="0 0 112 38" fill="none" xmlns="http://www.w3.org/2000/svg">
<path d="M44.0046 29.7228V8.1074H47.9078V14.2171L48.233 14.2634C49.3482 9.54226 51.5786 7.87598 54.9242 7.87598H55.7606V12.3194H54.6454C49.9523 12.3194 48.0472 14.1708 48.0472 19.0308V29.7228H44.0046Z" fill="#EBEFF2"/>
<path d="M65.4255 37.5451C57.2475 37.5914 54.8312 35.7863 54.8312 32.9166C54.8312 31.0189 56.6899 29.6766 59.7102 29.0286V28.7971C58.0839 28.4731 57.0151 27.5937 57.0151 26.0663C57.0151 24.9554 57.9445 23.9834 59.2455 23.2891L60.8718 22.2709C57.7586 21.2063 56.0858 18.8457 56.0858 15.652C56.0858 10.7457 59.5708 8.10742 65.472 8.10742H76.0198V11.3011H73.4177C72.256 11.3011 70.862 11.2086 68.9105 11.0234V11.44C71.8843 12.0417 74.347 13.2914 74.347 16.4389C74.347 20.4657 71.1873 22.8726 65.1467 22.8726C63.7527 22.8726 62.5446 22.7337 61.4759 22.4097L60.8718 23.3817C60.5001 23.9834 60.2213 24.4 60.2213 24.8629C60.2213 25.7886 61.0112 26.1588 62.4981 26.1588C64.9144 26.1588 67.5165 26.1126 69.8863 26.1126C74.3005 26.1126 76.5774 28.0103 76.5774 31.2966C76.5774 35.5548 73.8359 37.5914 65.4255 37.5451ZM73.2318 31.4354C73.2318 30.0469 72.256 28.9823 69.8398 28.9823H62.0335C59.3385 28.9823 58.0839 30.4171 58.0839 31.7594C58.0839 33.7034 59.6637 34.5366 65.5649 34.5366C71.7914 34.5366 73.2318 33.472 73.2318 31.4354ZM59.8031 15.652C59.8031 18.3366 61.29 19.9566 65.2396 19.9566C69.1893 19.9566 70.8156 18.3829 70.8156 15.652C70.8156 12.9211 68.9105 11.3011 65.1467 11.3011C61.3829 11.3011 59.8031 13.06 59.8031 15.652Z" fill="#EBEFF2"/>
<path d="M76.5774 19.0771C76.5774 11.8566 80.8058 7.552 87.3575 7.552C93.9092 7.552 97.1154 11.5326 97.1154 17.5034C97.1154 18.1514 97.0689 19.1234 96.976 20.0954H80.6199C80.9452 24.4926 83.2685 26.8994 87.4504 26.8994C91.3536 26.8994 92.7011 24.9554 93.3981 22.5486L96.9295 23.5206C95.8608 27.64 93.0728 30.232 87.4504 30.232C80.7128 30.232 76.5774 26.2514 76.5774 19.0771ZM80.6664 17.1794H93.3516C93.1658 13.06 91.2606 10.7457 87.2646 10.7457C83.2685 10.7457 81.131 12.8749 80.6664 17.1794Z" fill="#EBEFF2"/>
<path d="M107.632 1.07199L98.5248 36.712H102.707L112 0.00741577L107.632 1.07199Z" fill="#EBEFF2"/>
<path d="M0.434937 29.6071L4.70981 28.558V18.8457H17.4415V15.1428H4.70981V5.83942H18.9749V1.95142H0.434937V29.6071Z" fill="#EBEFF2"/>
<path d="M41.1934 18.8457C41.1934 11.764 36.8721 7.552 30.3204 7.552C23.7687 7.552 19.4473 11.764 19.4473 18.8457C19.4473 20.836 19.7803 22.6103 20.3921 24.1454L21.9875 23.752C23.575 27.5397 26.9826 29.7537 31.8538 29.7537C38.661 29.7537 42.6416 25.4414 42.7191 18.5294L41.1857 18.9074C41.1857 18.9074 41.1857 18.8689 41.1857 18.8457H41.1934ZM31.815 26.236C28.818 26.236 26.8587 24.9169 25.8441 22.6643L24.2566 23.05C23.7532 21.862 23.4899 20.4349 23.4899 18.7994C23.4899 13.9394 25.8596 11.0234 30.3204 11.0234C34.7811 11.0234 37.1509 13.9394 37.1509 18.7994C37.1509 19.2314 37.1277 19.648 37.0889 20.0569L38.6146 19.6866C38.2041 23.7289 35.9583 26.2437 31.815 26.2437V26.236Z" fill="#EBEFF2"/>
</svg>
